# This file uses centimeters as units for non-parametric coordinates.

mtllib rock1.mtl
g default
v 9.580411 0.000000 6.488664
v 9.562550 0.280177 6.974777
v 9.019932 -0.000000 7.088011
v 9.394485 -0.438382 6.938473
v 10.055709 -0.183770 6.942399
v 10.115758 0.047428 7.529847
v 9.766337 0.438382 7.666279
v 9.134841 0.270935 7.815817
v 9.093651 -0.270935 7.666279
v 9.766337 -0.438382 7.666279
v 9.580411 0.000000 8.116087
vt 0.919052 0.588104
vt 0.088104 0.823792
vt 0.176208 0.500000
vt 0.088104 0.176208
vt 0.838104 0.323792
vt 0.676208 0.500000
vt 0.588104 0.823792
vt 0.338104 0.676208
vt 0.338104 0.323792
vt 0.588104 0.176208
vt 0.500000 0.500000
vt 1.088104 0.823792
vt 1.176208 0.500000
vt 1.088104 0.176208
vn -0.482006 0.751330 -0.450748
vn -0.482006 0.751330 -0.450748
vn -0.482006 0.751330 -0.450748
vn -0.680231 -0.364200 -0.636117
vn -0.680231 -0.364200 -0.636117
vn -0.680231 -0.364200 -0.636117
vn 0.289508 -0.742537 -0.604007
vn 0.289508 -0.742537 -0.604007
vn 0.289508 -0.742537 -0.604007
vn 0.678479 0.646982 -0.347968
vn 0.678479 0.646982 -0.347968
vn 0.678479 0.646982 -0.347968
vn -0.484315 0.842170 -0.237043
vn -0.484315 0.842170 -0.237043
vn -0.484315 0.842170 -0.237043
vn -0.777403 -0.601833 -0.182871
vn -0.777403 -0.601833 -0.182871
vn -0.777403 -0.601833 -0.182871
vn 0.354339 -0.917425 -0.181040
vn 0.354339 -0.917425 -0.181039
vn 0.354339 -0.917425 -0.181039
vn 0.605899 0.717222 -0.344207
vn 0.605900 0.717222 -0.344207
vn 0.605899 0.717222 -0.344207
vn 0.631548 0.688724 -0.356097
vn 0.631548 0.688724 -0.356097
vn 0.631548 0.688724 -0.356097
vn -0.283464 0.949614 -0.133720
vn -0.283464 0.949614 -0.133720
vn -0.283464 0.949614 -0.133720
vn -0.989098 0.035764 0.142849
vn -0.989098 0.035764 0.142849
vn -0.989098 0.035764 0.142849
vn -0.239733 -0.963081 0.122485
vn -0.239733 -0.963081 0.122485
vn -0.239733 -0.963081 0.122485
vn 0.821952 -0.553603 0.133857
vn 0.821952 -0.553603 0.133857
vn 0.821952 -0.553603 0.133857
vn 0.669437 0.374416 0.641612
vn 0.669437 0.374416 0.641612
vn 0.669437 0.374416 0.641612
vn -0.027494 0.721530 0.691837
vn -0.027494 0.721530 0.691837
vn -0.027494 0.721530 0.691837
vn -0.618241 -0.165074 0.768458
vn -0.618241 -0.165074 0.768458
vn -0.618241 -0.165074 0.768458
vn -0.184421 -0.740876 0.645826
vn -0.184421 -0.740876 0.645826
vn -0.184421 -0.740876 0.645826
vn 0.708940 -0.335727 0.620235
vn 0.708940 -0.335727 0.620235
vn 0.708940 -0.335727 0.620235
s off
g pPlatonic1
usemtl initialShadingGroup
f 1/1/1 3/13/2 2/12/3
f 1/1/4 4/14/5 3/13/6
f 1/1/7 5/5/8 4/14/9
f 1/1/10 2/12/11 7/7/12
f 2/2/13 3/3/14 8/8/15
f 3/3/16 4/4/17 9/9/18
f 4/14/19 5/5/20 10/10/21
f 5/5/22 1/1/23 6/6/24
f 1/1/25 7/7/26 6/6/27
f 2/2/28 8/8/29 7/7/30
f 3/3/31 9/9/32 8/8/33
f 4/4/34 10/10/35 9/9/36
f 5/5/37 6/6/38 10/10/39
f 6/6/40 7/7/41 11/11/42
f 7/7/43 8/8/44 11/11/45
f 8/8/46 9/9/47 11/11/48
f 9/9/49 10/10/50 11/11/51
f 10/10/52 6/6/53 11/11/54
