# This file uses centimeters as units for non-parametric coordinates.

mtllib rock2.mtl
g default
v 7.497060 0.107684 8.559173
v 7.962291 0.270271 8.718441
v 7.779173 -0.000000 9.437040
v 7.859950 -0.289148 9.031261
v 7.730481 -0.026594 7.947667
v 8.438681 0.153435 8.134289
v 8.420457 0.228563 8.646097
v 8.240677 0.070310 9.336173
v 8.195883 -0.261355 9.485695
v 8.500582 -0.205455 8.629174
v 8.724085 0.000000 8.976938
vt 0.919052 0.588104
vt 0.088104 0.823792
vt 0.176208 0.500000
vt 0.088104 0.176208
vt 0.838104 0.323792
vt 0.676208 0.500000
vt 0.588104 0.823792
vt 0.338104 0.676208
vt 0.338104 0.323792
vt 0.588104 0.176208
vt 0.500000 0.500000
vt 1.088104 0.823792
vt 1.176208 0.500000
vt 1.088104 0.176208
vn -0.391365 0.889747 0.234911
vn -0.391365 0.889747 0.234911
vn -0.391365 0.889747 0.234911
vn -0.830962 -0.517763 0.203527
vn -0.830962 -0.517763 0.203527
vn -0.830962 -0.517763 0.203527
vn -0.674500 -0.731908 -0.096750
vn -0.674500 -0.731908 -0.096750
vn -0.674500 -0.731908 -0.096750
vn -0.036010 0.750008 -0.660448
vn -0.036010 0.750008 -0.660448
vn -0.036010 0.750008 -0.660448
vn -0.069785 0.939436 0.335546
vn -0.069785 0.939435 0.335546
vn -0.069785 0.939436 0.335546
vn -0.515764 -0.742907 0.426705
vn -0.515764 -0.742907 0.426705
vn -0.515764 -0.742907 0.426705
vn -0.019386 -0.972223 -0.233252
vn -0.019386 -0.972223 -0.233252
vn -0.019386 -0.972223 -0.233252
vn -0.168978 0.947203 -0.272494
vn -0.168978 0.947203 -0.272494
vn -0.168978 0.947203 -0.272494
vn -0.114630 0.982281 -0.148270
vn -0.114630 0.982281 -0.148270
vn -0.114630 0.982281 -0.148270
vn 0.127266 0.959036 0.253088
vn 0.127266 0.959036 0.253088
vn 0.127266 0.959036 0.253088
vn 0.139206 0.391300 0.909673
vn 0.139206 0.391300 0.909673
vn 0.139206 0.391300 0.909673
vn 0.114663 -0.993114 -0.024025
vn 0.114663 -0.993114 -0.024025
vn 0.114663 -0.993114 -0.024025
vn 0.340884 -0.740271 -0.579480
vn 0.340884 -0.740271 -0.579480
vn 0.340884 -0.740271 -0.579480
vn 0.657575 0.748413 -0.086444
vn 0.657575 0.748413 -0.086444
vn 0.657575 0.748413 -0.086444
vn 0.348506 0.889729 0.294832
vn 0.348506 0.889729 0.294832
vn 0.348506 0.889729 0.294832
vn 0.600027 0.260027 0.756540
vn 0.600027 0.260027 0.756540
vn 0.600027 0.260027 0.756540
vn 0.543780 -0.827563 0.139434
vn 0.543780 -0.827563 0.139434
vn 0.543780 -0.827563 0.139434
vn 0.869380 -0.341947 -0.356722
vn 0.869380 -0.341947 -0.356722
vn 0.869380 -0.341947 -0.356722
s off
g pPlatonic3
usemtl initialShadingGroup
f 1/1/1 3/13/2 2/12/3
f 1/1/4 4/14/5 3/13/6
f 1/1/7 5/5/8 4/14/9
f 1/1/10 2/12/11 7/7/12
f 2/2/13 3/3/14 8/8/15
f 3/3/16 4/4/17 9/9/18
f 4/14/19 5/5/20 10/10/21
f 5/5/22 1/1/23 6/6/24
f 1/1/25 7/7/26 6/6/27
f 2/2/28 8/8/29 7/7/30
f 3/3/31 9/9/32 8/8/33
f 4/4/34 10/10/35 9/9/36
f 5/5/37 6/6/38 10/10/39
f 6/6/40 7/7/41 11/11/42
f 7/7/43 8/8/44 11/11/45
f 8/8/46 9/9/47 11/11/48
f 9/9/49 10/10/50 11/11/51
f 10/10/52 6/6/53 11/11/54
