# This file uses centimeters as units for non-parametric coordinates.

mtllib smallmountain.mtl
g default
v 5.406871 -2.026144 -24.149287
v 23.056832 -2.026144 -24.149287
v 5.406871 1.945098 -24.502286
v 23.056832 1.945098 -24.502286
v 5.406871 -2.026144 -41.799248
v 23.056832 -2.026144 -41.799248
v 5.406871 1.620915 -25.914283
v 23.056832 1.620915 -25.914283
v 5.406871 1.823530 -25.031785
v 23.056832 1.823530 -25.031785
v 23.056832 -2.026144 -32.974267
v 5.406871 -2.026144 -32.974267
v 23.056832 -2.026144 -27.679279
v 5.406871 -2.026144 -27.679279
v 5.406871 1.620915 -24.149287
v 23.056832 1.620915 -24.149287
v 23.056832 1.547974 -24.819985
v 23.056832 1.438562 -25.826034
v 23.056832 1.256209 -27.502780
v 5.406871 1.256209 -27.502780
v 5.406871 1.438562 -25.826034
v 5.406871 1.547974 -24.819985
v 5.406871 1.256209 -24.149287
v 23.056832 1.256209 -24.149287
v 23.056832 1.190562 -25.105915
v 23.056832 1.092092 -26.540857
v 23.056832 0.927974 -28.932427
v 5.406871 0.927974 -28.932427
v 5.406871 1.092092 -26.540857
v 5.406871 1.190562 -25.105915
vt 0.375000 0.000000
vt 0.625000 0.000000
vt 0.373333 0.251667
vt 0.626667 0.251667
vt 0.375000 0.625000
vt 0.625000 0.625000
vt 0.375000 1.000000
vt 0.625000 1.000000
vt 0.875000 0.125000
vt 0.125000 0.125000
vt 0.350000 0.237500
vt 0.375000 0.287500
vt 0.625000 0.287500
vt 0.650000 0.237500
vt 0.362500 0.243750
vt 0.375000 0.268750
vt 0.625000 0.268750
vt 0.637500 0.243750
vt 0.625000 0.812500
vt 0.750000 0.062500
vt 0.250000 0.062500
vt 0.375000 0.812500
vt 0.625000 0.925000
vt 0.675000 0.025000
vt 0.325000 0.025000
vt 0.375000 0.925000
vt 0.375000 0.225000
vt 0.625000 0.225000
vt 0.634500 0.225250
vt 0.648750 0.225625
vt 0.625000 0.321250
vt 0.672500 0.226250
vt 0.327500 0.226250
vt 0.375000 0.321250
vt 0.351250 0.225625
vt 0.365500 0.225250
vt 0.375000 0.202500
vt 0.625000 0.202500
vt 0.638550 0.205225
vt 0.658875 0.209312
vt 0.625000 0.351625
vt 0.692750 0.216125
vt 0.307250 0.216125
vt 0.375000 0.351625
vt 0.341125 0.209312
vt 0.361450 0.205225
vn 0.000000 0.456033 0.889963
vn 0.000000 0.456033 0.889963
vn 0.000000 0.736529 0.676406
vn 0.000000 0.736529 0.676406
vn 0.000000 0.974642 -0.223770
vn 0.000000 0.974642 -0.223770
vn 0.000000 0.974642 -0.223770
vn 0.000000 0.974642 -0.223770
vn 0.000000 -1.000000 0.000000
vn 0.000000 -1.000000 0.000000
vn 0.000000 -1.000000 0.000000
vn 0.000000 -1.000000 0.000000
vn 1.000000 0.000000 0.000000
vn 1.000000 0.000000 0.000000
vn 1.000000 0.000000 0.000000
vn 1.000000 0.000000 0.000000
vn -1.000000 0.000000 0.000000
vn -1.000000 0.000000 0.000000
vn -1.000000 0.000000 0.000000
vn -1.000000 0.000000 0.000000
vn 0.000000 0.974642 -0.223770
vn 0.000000 0.974642 -0.223770
vn 0.000000 0.974642 -0.223770
vn 0.000000 0.974642 -0.223770
vn 1.000000 0.000000 0.000000
vn 1.000000 0.000000 0.000000
vn 0.000000 -1.000000 0.000000
vn 0.000000 -1.000000 0.000000
vn -1.000000 0.000000 0.000000
vn -1.000000 0.000000 0.000000
vn 1.000000 0.000000 0.000000
vn 0.000000 -1.000000 0.000000
vn 0.000000 -1.000000 0.000000
vn -1.000000 0.000000 0.000000
vn 0.000000 0.000000 1.000000
vn 0.000000 0.000000 1.000000
vn 1.000000 0.000000 0.000000
vn 1.000000 0.000000 0.000000
vn 1.000000 0.000000 0.000000
vn 1.000000 0.000000 0.000000
vn 0.000000 0.974642 -0.223770
vn 0.000000 0.974642 -0.223770
vn -1.000000 -0.000001 0.000000
vn -1.000000 -0.000000 0.000000
vn -1.000000 0.000000 0.000000
vn -1.000000 0.000000 0.000000
vn 0.000000 0.000000 1.000000
vn 0.000000 0.000000 1.000000
vn 1.000000 0.000000 0.000000
vn 1.000000 0.000000 0.000000
vn 1.000000 0.000000 0.000000
vn 1.000000 0.000000 0.000000
vn 0.000000 0.974642 -0.223770
vn 0.000000 0.974642 -0.223770
vn -1.000000 -0.000001 0.000000
vn -1.000000 -0.000000 0.000000
vn -1.000000 0.000000 0.000000
vn -1.000000 0.000000 0.000000
s 1
g pCube357
usemtl initialShadingGroup
f 15/27/1 16/28/2 4/4/3 3/3/4
s 2
f 7/12/5 8/13/6 19/31/7 20/34/8
s 3
f 5/5/9 6/6/10 11/19/11 12/22/12
s 4
f 10/18/13 18/30/14 19/32/15 8/14/16
s 5
f 20/33/17 21/35/18 9/15/19 7/11/20
s 2
f 9/16/21 10/17/22 8/13/6 7/12/5
f 3/3/23 4/4/24 10/17/22 9/16/21
s 4
f 4/4/25 17/29/26 18/30/14 10/18/13
s 3
f 12/22/12 11/19/11 13/23/27 14/26/28
s 5
f 9/15/19 21/35/18 22/36/29 3/3/30
s 4
f 16/28/31 17/29/26 4/4/25
s 3
f 14/26/28 13/23/27 2/8/32 1/7/33
s 5
f 3/3/30 22/36/29 15/27/34
s 1
f 23/37/35 24/38/36 16/28/2 15/27/1
s 4
f 24/38/37 25/39/38 17/29/26 16/28/31
f 18/30/14 17/29/26 25/39/38 26/40/39
f 19/32/15 18/30/14 26/40/39 27/42/40
s 2
f 20/34/8 19/31/7 27/41/41 28/44/42
s 5
f 28/43/43 29/45/44 21/35/18 20/33/17
f 22/36/29 21/35/18 29/45/44 30/46/45
f 15/27/34 22/36/29 30/46/45 23/37/46
s 1
f 1/1/47 2/2/48 24/38/36 23/37/35
s 4
f 2/2/49 13/24/50 25/39/38 24/38/37
f 26/40/39 25/39/38 13/24/50 11/20/51
f 27/42/40 26/40/39 11/20/51 6/9/52
s 2
f 28/44/42 27/41/41 6/6/53 5/5/54
s 5
f 5/10/55 12/21/56 29/45/44 28/43/43
f 30/46/45 29/45/44 12/21/56 14/25/57
f 23/37/46 30/46/45 14/25/57 1/1/58
