# This file uses centimeters as units for non-parametric coordinates.

mtllib tree5.mtl
g default
v 2.425993 0.038255 6.072368
v 2.389040 0.038255 5.999844
v 2.331484 0.038255 5.942288
v 2.258961 0.038255 5.905336
v 2.178567 0.038255 5.892603
v 2.098174 0.038255 5.905336
v 2.025650 0.038255 5.942288
v 1.968094 0.038255 5.999844
v 1.931142 0.038255 6.072368
v 1.918409 0.038255 6.152761
v 1.931142 0.038255 6.233155
v 1.968095 0.038255 6.305678
v 2.025650 0.038255 6.363234
v 2.098174 0.038255 6.400186
v 2.178567 0.038255 6.412919
v 2.258960 0.038255 6.400186
v 2.331484 0.038255 6.363234
v 2.389040 0.038255 6.305678
v 2.425992 0.038255 6.233154
v 2.438725 0.038255 6.152761
v 2.267745 5.665815 6.123786
v 2.254426 5.665815 6.097646
v 2.233682 5.665815 6.076902
v 2.207543 5.665815 6.063583
v 2.178567 5.665815 6.058994
v 2.149592 5.665815 6.063583
v 2.123452 5.665815 6.076902
v 2.102708 5.665815 6.097646
v 2.089389 5.665815 6.123786
v 2.084800 5.665815 6.152761
v 2.089389 5.665815 6.181737
v 2.102708 5.665815 6.207876
v 2.123452 5.665815 6.228620
v 2.149592 5.665815 6.241939
v 2.178567 5.665815 6.246528
v 2.207543 5.665815 6.241939
v 2.233682 5.665815 6.228620
v 2.254426 5.665815 6.207876
v 2.267745 5.665815 6.181737
v 2.272334 5.665815 6.152761
v 2.178567 0.038255 6.152761
v 2.178567 5.665815 6.152761
vt 0.648603 0.107966
vt 0.626409 0.064408
vt 0.591842 0.029841
vt 0.548284 0.007647
vt 0.500000 -0.000000
vt 0.451716 0.007647
vt 0.408159 0.029841
vt 0.373591 0.064409
vt 0.351397 0.107966
vt 0.343750 0.156250
vt 0.351397 0.204534
vt 0.373591 0.248091
vt 0.408159 0.282659
vt 0.451716 0.304853
vt 0.500000 0.312500
vt 0.548284 0.304853
vt 0.591841 0.282659
vt 0.626409 0.248091
vt 0.648603 0.204534
vt 0.656250 0.156250
vt 0.375000 0.312500
vt 0.387500 0.312500
vt 0.400000 0.312500
vt 0.412500 0.312500
vt 0.425000 0.312500
vt 0.437500 0.312500
vt 0.450000 0.312500
vt 0.462500 0.312500
vt 0.475000 0.312500
vt 0.487500 0.312500
vt 0.500000 0.312500
vt 0.512500 0.312500
vt 0.525000 0.312500
vt 0.537500 0.312500
vt 0.550000 0.312500
vt 0.562500 0.312500
vt 0.575000 0.312500
vt 0.587500 0.312500
vt 0.600000 0.312500
vt 0.612500 0.312500
vt 0.625000 0.312500
vt 0.375000 0.688440
vt 0.387500 0.688440
vt 0.400000 0.688440
vt 0.412500 0.688440
vt 0.425000 0.688440
vt 0.437500 0.688440
vt 0.450000 0.688440
vt 0.462500 0.688440
vt 0.475000 0.688440
vt 0.487500 0.688440
vt 0.500000 0.688440
vt 0.512500 0.688440
vt 0.525000 0.688440
vt 0.537500 0.688440
vt 0.550000 0.688440
vt 0.562500 0.688440
vt 0.575000 0.688440
vt 0.587500 0.688440
vt 0.600000 0.688440
vt 0.612500 0.688440
vt 0.625000 0.688440
vt 0.648603 0.795466
vt 0.626409 0.751908
vt 0.591842 0.717341
vt 0.548284 0.695147
vt 0.500000 0.687500
vt 0.451716 0.695147
vt 0.408159 0.717341
vt 0.373591 0.751909
vt 0.351397 0.795466
vt 0.343750 0.843750
vt 0.351397 0.892034
vt 0.373591 0.935591
vt 0.408159 0.970159
vt 0.451716 0.992353
vt 0.500000 1.000000
vt 0.548284 0.992353
vt 0.591841 0.970159
vt 0.626409 0.935591
vt 0.648603 0.892034
vt 0.656250 0.843750
vt 0.500000 0.150000
vt 0.500000 0.837500
vn 0.950641 0.029554 -0.308881
vn 0.808663 0.029554 -0.587529
vn 0.808663 0.029554 -0.587529
vn 0.950641 0.029554 -0.308881
vn 0.587528 0.029554 -0.808664
vn 0.587528 0.029554 -0.808664
vn 0.308882 0.029554 -0.950641
vn 0.308882 0.029554 -0.950641
vn -0.000000 0.029554 -0.999563
vn -0.000000 0.029554 -0.999563
vn -0.308882 0.029554 -0.950641
vn -0.308882 0.029554 -0.950641
vn -0.587528 0.029554 -0.808664
vn -0.587528 0.029554 -0.808664
vn -0.808664 0.029554 -0.587528
vn -0.808664 0.029554 -0.587528
vn -0.950641 0.029554 -0.308882
vn -0.950641 0.029554 -0.308882
vn -0.999563 0.029554 0.000000
vn -0.999563 0.029554 0.000000
vn -0.950641 0.029554 0.308882
vn -0.950641 0.029554 0.308883
vn -0.808664 0.029554 0.587528
vn -0.808664 0.029554 0.587528
vn -0.587528 0.029554 0.808664
vn -0.587528 0.029554 0.808664
vn -0.308882 0.029554 0.950641
vn -0.308882 0.029554 0.950641
vn 0.000000 0.029554 0.999563
vn 0.000000 0.029554 0.999563
vn 0.308881 0.029554 0.950641
vn 0.308881 0.029554 0.950641
vn 0.587528 0.029554 0.808664
vn 0.587528 0.029554 0.808664
vn 0.808664 0.029554 0.587528
vn 0.808664 0.029554 0.587528
vn 0.950641 0.029554 0.308882
vn 0.950641 0.029554 0.308882
vn 0.999563 0.029554 0.000001
vn 0.999563 0.029554 0.000002
vn 0.000000 -1.000000 0.000000
vn 0.000000 -1.000000 0.000000
vn 0.000000 -1.000000 -0.000000
vn 0.000000 -1.000000 0.000000
vn 0.000000 -1.000000 0.000000
vn 0.000000 -1.000000 0.000000
vn 0.000000 -1.000000 0.000000
vn 0.000000 -1.000000 0.000000
vn 0.000000 -1.000000 0.000000
vn 0.000000 -1.000000 0.000000
vn 0.000000 -1.000000 0.000000
vn 0.000000 -1.000000 0.000000
vn 0.000000 -1.000000 0.000000
vn 0.000000 -1.000000 0.000000
vn 0.000000 -1.000000 -0.000000
vn 0.000000 -1.000000 -0.000000
vn 0.000000 -1.000000 0.000000
vn 0.000000 -1.000000 0.000000
vn 0.000000 -1.000000 0.000000
vn 0.000000 -1.000000 0.000000
vn 0.000000 -1.000000 0.000000
vn 0.000000 1.000000 0.000000
vn 0.000000 1.000000 -0.000008
vn 0.000000 1.000000 -0.000001
vn 0.000000 1.000000 -0.000008
vn 0.000000 1.000000 0.000000
vn 0.000000 1.000000 0.000000
vn 0.000000 1.000000 0.000000
vn 0.000000 1.000000 0.000004
vn 0.000000 1.000000 0.000004
vn 0.000000 1.000000 0.000000
vn 0.000000 1.000000 0.000000
vn 0.000000 1.000000 0.000000
vn 0.000000 1.000000 -0.000008
vn 0.000000 1.000000 -0.000008
vn 0.000000 1.000000 0.000002
vn 0.000000 1.000000 0.000001
vn 0.000000 1.000000 -0.000001
vn 0.000000 1.000000 0.000004
vn 0.000000 1.000000 0.000004
vn 0.000000 1.000000 0.000000
vn 0.000000 1.000000 0.000000
s 1
g pCylinder773
usemtl initialShadingGroup
f 1/21/1 2/22/2 22/43/3 21/42/4
f 2/22/2 3/23/5 23/44/6 22/43/3
f 3/23/5 4/24/7 24/45/8 23/44/6
f 4/24/7 5/25/9 25/46/10 24/45/8
f 5/25/9 6/26/11 26/47/12 25/46/10
f 6/26/11 7/27/13 27/48/14 26/47/12
f 7/27/13 8/28/15 28/49/16 27/48/14
f 8/28/15 9/29/17 29/50/18 28/49/16
f 9/29/17 10/30/19 30/51/20 29/50/18
f 10/30/19 11/31/21 31/52/22 30/51/20
f 11/31/21 12/32/23 32/53/24 31/52/22
f 12/32/23 13/33/25 33/54/26 32/53/24
f 13/33/25 14/34/27 34/55/28 33/54/26
f 14/34/27 15/35/29 35/56/30 34/55/28
f 15/35/29 16/36/31 36/57/32 35/56/30
f 16/36/31 17/37/33 37/58/34 36/57/32
f 17/37/33 18/38/35 38/59/36 37/58/34
f 18/38/35 19/39/37 39/60/38 38/59/36
f 19/39/37 20/40/39 40/61/40 39/60/38
f 20/40/39 1/41/1 21/62/4 40/61/40
s 2
f 2/2/41 1/1/42 41/83/43
f 3/3/44 2/2/41 41/83/43
f 4/4/45 3/3/44 41/83/43
f 5/5/46 4/4/45 41/83/43
f 6/6/47 5/5/46 41/83/43
f 7/7/48 6/6/47 41/83/43
f 8/8/49 7/7/48 41/83/43
f 9/9/50 8/8/49 41/83/43
f 10/10/51 9/9/50 41/83/43
f 11/11/52 10/10/51 41/83/43
f 12/12/53 11/11/52 41/83/43
f 13/13/54 12/12/53 41/83/43
f 14/14/55 13/13/54 41/83/43
f 15/15/56 14/14/55 41/83/43
f 16/16/57 15/15/56 41/83/43
f 17/17/58 16/16/57 41/83/43
f 18/18/59 17/17/58 41/83/43
f 19/19/60 18/18/59 41/83/43
f 20/20/61 19/19/60 41/83/43
f 1/1/42 20/20/61 41/83/43
s 3
f 21/81/62 22/80/63 42/84/64
f 22/80/63 23/79/65 42/84/64
f 23/79/65 24/78/66 42/84/64
f 24/78/66 25/77/67 42/84/64
f 25/77/67 26/76/68 42/84/64
f 26/76/68 27/75/69 42/84/64
f 27/75/69 28/74/70 42/84/64
f 28/74/70 29/73/71 42/84/64
f 29/73/71 30/72/72 42/84/64
f 30/72/72 31/71/73 42/84/64
f 31/71/73 32/70/74 42/84/64
f 32/70/74 33/69/75 42/84/64
f 33/69/75 34/68/76 42/84/64
f 34/68/76 35/67/77 42/84/64
f 35/67/77 36/66/78 42/84/64
f 36/66/78 37/65/79 42/84/64
f 37/65/79 38/64/80 42/84/64
f 38/64/80 39/63/81 42/84/64
f 39/63/81 40/82/82 42/84/64
f 40/82/82 21/81/62 42/84/64
g default
v 1.775798 9.346998 6.087604
v 1.762729 9.073576 5.341068
v 1.197886 9.024869 6.528619
v 2.495620 9.109077 6.327389
v 1.339793 8.464822 7.209420
v 0.606901 8.429321 6.223100
v 2.927425 8.688615 5.729046
v 3.211241 7.568522 7.090648
v 1.292506 7.475581 4.508427
v 0.593831 8.155904 5.476563
v 2.595235 7.664226 4.592346
v 0.836515 7.523148 7.324659
v 0.383563 7.501207 6.715080
v 3.501138 7.708107 5.811506
v 0.789228 6.533907 4.623665
v 1.053057 6.343556 7.679681
v 0.147153 6.299675 6.460523
v 3.621900 6.705659 5.284385
v 3.643047 7.148061 6.492307
v 2.987903 6.640408 7.582626
v 0.997693 5.185331 4.517303
v 2.212717 5.720104 4.180471
v 2.932539 5.482183 4.420249
v 0.816649 5.142020 7.425123
v 1.772878 6.105635 7.919458
v 3.838442 5.526064 5.639407
v 3.628172 4.871371 6.877924
v 3.196367 5.291832 7.476264
v 0.774355 4.257217 5.009282
v 1.709437 4.778429 4.295703
v 0.342548 4.677678 5.607623
v 1.390361 4.161512 7.507584
v 0.484457 4.117632 6.288423
v 3.602033 4.324532 5.384850
v 2.693090 4.350158 7.591503
v 1.348066 3.276709 5.091740
v 2.645803 3.360917 4.890510
v 1.511123 3.159064 6.980463
v 1.058171 3.137124 6.370884
v 3.378694 3.396417 5.876829
v 3.391764 3.669835 6.623366
v 2.347194 3.363698 7.048464
vt 0.032258 0.299280
vt 0.112903 0.327216
vt 0.096774 0.411025
vt 0.032258 0.411025
vt 0.000000 0.355153
vt 0.209677 0.327216
vt 0.308355 0.282569
vt 0.290323 0.411025
vt 0.210947 0.427821
vt 0.403226 0.327216
vt 0.483871 0.299280
vt 0.516129 0.355153
vt 0.483871 0.411025
vt 0.419355 0.411025
vt 0.653226 0.313248
vt 0.692279 0.427821
vt 0.612903 0.411025
vt 0.548387 0.466898
vt 0.790323 0.327216
vt 0.870968 0.299280
vt 0.903226 0.355153
vt 0.870968 0.411025
vt 0.806452 0.411025
vt 0.903226 0.466898
vt 0.838710 0.522771
vt 0.774194 0.466898
vt 0.677419 0.522771
vt 0.612903 0.522771
vt 0.580645 0.466898
vt 0.516129 0.466898
vt 0.435484 0.494834
vt 0.401957 0.561848
vt 0.322581 0.466898
vt 0.290323 0.522771
vt 0.225806 0.522771
vt 0.112903 0.494834
vt 0.016129 0.494834
vt 0.193548 0.578643
vt 0.129032 0.578643
vt 0.322581 0.578643
vt 0.596774 0.606579
vt 0.774194 0.578643
vt 0.709677 0.578643
vt 0.983871 0.494834
vt 0.983871 0.606579
vt 0.844870 0.581386
vt 0.967742 0.690388
vt 0.887097 0.662452
vt 0.790323 0.662452
vt 0.709677 0.690388
vt 0.677419 0.634516
vt 0.580645 0.690388
vt 0.516129 0.690388
vt 0.483871 0.634516
vt 0.419355 0.634516
vt 0.387097 0.690388
vt 0.306452 0.662452
vt 0.209677 0.662452
vt 0.129032 0.690388
vt 0.096774 0.634516
vt 0.116711 0.584129
vt 0.038419 0.603090
vt 0.310259 0.584129
vt 0.258065 0.622051
vt 0.205870 0.584129
vt 0.503808 0.584129
vt 0.451613 0.622051
vt 0.697356 0.584129
vt 0.619064 0.603090
vt 0.890904 0.584129
vt 0.838710 0.622051
vt 0.213485 0.751747
vt 0.161290 0.789669
vt 0.109096 0.751747
vt 0.109096 0.405539
vt 0.161290 0.367618
vt 0.354839 0.405539
vt 0.496192 0.405539
vt 0.548387 0.367618
vt 0.600582 0.405539
vt 0.741935 0.367618
vt 0.794130 0.405539
vt 0.883289 0.405539
vt 0.935484 0.367618
vt 0.987679 0.405539
vt 0.205870 0.237922
vt 0.258065 0.200000
vn -0.614568 0.744159 -0.261789
vn -0.614568 0.744159 -0.261789
vn -0.614568 0.744159 -0.261789
vn -0.614568 0.744159 -0.261789
vn -0.614568 0.744159 -0.261789
vn 0.047123 0.776210 0.628712
vn 0.047123 0.776210 0.628712
vn 0.047123 0.776210 0.628712
vn 0.047123 0.776210 0.628712
vn 0.392163 0.861547 -0.322406
vn 0.392163 0.861547 -0.322406
vn 0.392163 0.861547 -0.322406
vn 0.282715 0.574909 -0.767823
vn 0.282715 0.574909 -0.767823
vn 0.282715 0.574909 -0.767823
vn 0.282715 0.574909 -0.767823
vn -0.724141 0.450880 0.521849
vn -0.724141 0.450880 0.521850
vn -0.724141 0.450880 0.521849
vn -0.724141 0.450880 0.521849
vn -0.724141 0.450880 0.521849
vn 0.828237 0.505038 0.242818
vn 0.828237 0.505038 0.242818
vn 0.828237 0.505038 0.242818
vn 0.828237 0.505038 0.242818
vn 0.828237 0.505038 0.242818
vn -0.571143 0.418417 -0.706203
vn -0.571143 0.418417 -0.706203
vn -0.571143 0.418417 -0.706203
vn -0.571143 0.418417 -0.706203
vn 0.552565 0.532393 -0.641272
vn 0.552564 0.532393 -0.641272
vn 0.552564 0.532393 -0.641272
vn 0.552565 0.532393 -0.641272
vn 0.552564 0.532393 -0.641272
vn -0.234286 0.240489 0.941953
vn -0.234286 0.240489 0.941953
vn -0.234286 0.240489 0.941953
vn -0.234286 0.240489 0.941953
vn -0.977158 0.204506 -0.057792
vn -0.977158 0.204506 -0.057792
vn -0.977158 0.204506 -0.057792
vn -0.977158 0.204506 -0.057792
vn 0.282137 0.478938 0.831275
vn 0.282137 0.478938 0.831275
vn 0.282137 0.478938 0.831275
vn 0.282137 0.478938 0.831275
vn -0.280206 0.032352 -0.959394
vn -0.280206 0.032352 -0.959394
vn -0.280206 0.032352 -0.959394
vn -0.280206 0.032352 -0.959394
vn -0.280206 0.032352 -0.959394
vn 0.159752 0.174413 -0.971627
vn 0.159752 0.174413 -0.971627
vn 0.159752 0.174413 -0.971627
vn 0.159752 0.174413 -0.971627
vn -0.802809 0.031819 0.595387
vn -0.802809 0.031819 0.595387
vn -0.802809 0.031819 0.595387
vn -0.802809 0.031819 0.595387
vn -0.802809 0.031819 0.595387
vn 0.994355 0.091881 0.053067
vn 0.994355 0.091881 0.053067
vn 0.994355 0.091881 0.053067
vn 0.994355 0.091881 0.053067
vn 0.994355 0.091881 0.053067
vn 0.835684 0.086405 0.542371
vn 0.835684 0.086405 0.542371
vn 0.835684 0.086405 0.542371
vn 0.835684 0.086405 0.542371
vn 0.835684 0.086405 0.542371
vn -0.904846 -0.007898 -0.425665
vn -0.904846 -0.007898 -0.425665
vn -0.904846 -0.007898 -0.425665
vn -0.904846 -0.007898 -0.425665
vn -0.904846 -0.007898 -0.425665
vn 0.746559 0.048042 -0.663583
vn 0.746559 0.048042 -0.663583
vn 0.746559 0.048042 -0.663583
vn 0.746559 0.048042 -0.663583
vn 0.746558 0.048042 -0.663583
vn -0.351121 -0.127438 0.927617
vn -0.351121 -0.127438 0.927617
vn -0.351121 -0.127438 0.927617
vn -0.351121 -0.127438 0.927617
vn 0.211000 0.130748 0.968702
vn 0.211000 0.130748 0.968702
vn 0.211000 0.130748 0.968702
vn 0.211000 0.130748 0.968702
vn 0.211000 0.130748 0.968702
vn -0.979924 -0.013450 -0.198917
vn -0.979924 -0.013450 -0.198917
vn -0.979924 -0.013450 -0.198917
vn -0.979924 -0.013450 -0.198917
vn -0.291368 -0.392355 -0.872446
vn -0.291368 -0.392355 -0.872446
vn -0.291368 -0.392355 -0.872446
vn -0.291368 -0.392355 -0.872446
vn -0.291368 -0.392355 -0.872446
vn 0.234290 -0.240487 -0.941952
vn 0.234290 -0.240487 -0.941952
vn 0.234290 -0.240487 -0.941952
vn 0.234290 -0.240487 -0.941952
vn -0.805069 -0.304082 0.509312
vn -0.805069 -0.304082 0.509312
vn -0.805069 -0.304082 0.509312
vn -0.805069 -0.304082 0.509312
vn -0.805069 -0.304082 0.509312
vn -0.805069 -0.304082 0.509312
vn 0.977158 -0.204505 0.057793
vn 0.977158 -0.204505 0.057793
vn 0.977158 -0.204505 0.057793
vn 0.977158 -0.204505 0.057793
vn 0.977158 -0.204505 0.057793
vn 0.603567 -0.378654 0.701661
vn 0.603567 -0.378654 0.701661
vn 0.603567 -0.378654 0.701661
vn 0.603567 -0.378654 0.701661
vn 0.603567 -0.378654 0.701661
vn -0.828237 -0.505037 -0.242818
vn -0.828237 -0.505037 -0.242818
vn -0.828237 -0.505037 -0.242818
vn -0.828237 -0.505037 -0.242818
vn -0.828237 -0.505037 -0.242818
vn 0.670640 -0.322909 -0.667812
vn 0.670640 -0.322909 -0.667812
vn 0.670640 -0.322909 -0.667812
vn 0.670640 -0.322909 -0.667812
vn -0.005405 -0.338026 0.941121
vn -0.005405 -0.338026 0.941121
vn -0.005405 -0.338026 0.941121
vn -0.005405 -0.338026 0.941121
vn -0.005405 -0.338026 0.941121
vn 0.063060 -0.997950 -0.010938
vn 0.063060 -0.997950 -0.010938
vn 0.063060 -0.997950 -0.010938
vn 0.212728 -0.973910 -0.079028
vn 0.212727 -0.973910 -0.079028
vn 0.212728 -0.973910 -0.079028
vn 0.212727 -0.973910 -0.079028
vn 0.127002 -0.988321 0.084212
vn 0.127002 -0.988321 0.084212
vn 0.127002 -0.988321 0.084212
vn 0.127002 -0.988321 0.084212
s off
g pSolid5
usemtl initialShadingGroup
f 43/98/83 44/94/84 52/95/85 48/96/86 45/97/87
f 43/98/88 45/97/89 47/114/90 46/115/91
f 46/115/92 49/117/93 43/161/94
f 43/92/95 53/93/96 51/90/97 44/91/98
f 48/163/99 55/164/100 54/113/101 47/114/102 45/162/103
f 50/116/104 61/124/105 56/118/106 49/117/107 46/115/108
f 44/90/109 51/170/110 57/171/111 52/91/112
f 43/92/113 49/117/114 56/118/115 60/119/116 53/93/117
f 47/114/118 54/113/119 58/112/120 67/125/121
f 48/102/122 52/99/123 59/100/124 55/101/125
f 50/116/126 46/115/127 47/150/128 62/151/129
f 51/86/130 64/87/131 72/88/132 63/89/133 57/85/134
f 53/93/135 65/120/136 64/159/137 51/160/138
f 54/113/139 55/101/140 59/100/141 66/111/142 58/112/143
f 61/147/144 69/148/145 68/149/146 60/119/147 56/118/148
f 62/139/149 70/140/150 69/141/151 61/124/152 50/116/153
f 63/105/154 71/106/155 73/107/156 52/103/157 57/104/158
f 53/93/159 60/119/160 68/122/161 76/123/162 65/120/163
f 58/112/164 66/111/165 74/152/166 67/153/167
f 67/125/168 77/136/169 70/137/170 62/138/171 47/102/172
f 59/100/173 52/165/174 73/166/175 75/110/176
f 72/169/177 79/128/178 78/108/179 71/167/180 63/168/181
f 64/87/182 65/120/183 79/121/184 72/88/185
f 66/111/186 59/100/187 75/110/188 81/109/189 80/126/190 74/127/191
f 68/122/192 69/142/193 83/143/194 82/144/195 76/123/196
f 77/157/197 84/158/198 83/143/199 69/142/200 70/156/201
f 78/108/202 81/109/203 75/110/204 73/107/205 71/106/206
f 65/120/207 76/145/208 82/146/209 79/121/210
f 80/126/211 84/133/212 77/134/213 67/135/214 74/127/215
f 78/108/216 79/128/217 82/129/218
f 80/130/219 81/109/220 78/154/221 84/155/222
f 82/129/223 83/131/224 84/132/225 78/130/226
