# This file uses centimeters as units for non-parametric coordinates.

mtllib tree1.mtl
g default
v 11.149201 6.675928 1.287459
v 11.126139 6.276129 2.149493
v 11.951918 6.473370 0.682506
v 10.157251 6.770971 0.973754
v 11.762687 6.365856 -0.236153
v 12.731575 5.871015 0.939585
v 9.521130 6.429913 1.641909
v 9.142666 6.214887 -0.195408
v 11.679248 4.919374 2.882717
v 12.708513 5.471218 1.801621
v 9.893387 5.369685 2.844699
v 12.425389 5.697055 -0.546835
v 13.024195 5.391226 0.179811
v 8.695776 5.981343 1.391405
v 12.341950 4.250573 2.572035
v 12.096144 5.123298 -1.171220
v 13.293755 4.511641 0.282072
v 8.469228 5.226943 1.867548
v 8.506543 5.873830 0.472746
v 9.435286 5.735098 -0.955181
v 11.998452 3.429727 2.480415
v 10.329544 3.946486 3.010151
v 9.337594 4.041527 2.696454
v 12.365702 4.243711 -1.068960
v 11.104194 5.218339 -1.484917
v 8.139983 4.653184 1.243162
v 8.455667 4.573195 -0.378647
v 9.091787 4.914252 -1.046801
v 12.291072 2.949938 1.720642
v 10.992249 3.277682 2.699477
v 12.927195 3.290995 1.052488
v 11.540351 3.795140 -1.319465
v 12.737962 3.183482 0.133829
v 8.409543 3.773599 1.345423
v 9.754490 4.245451 -1.357483
v 11.465721 2.501367 1.470139
v 9.671051 2.798969 1.761387
v 11.313802 3.040740 -0.843322
v 11.912608 2.734912 -0.116676
v 8.702163 3.293810 0.585649
v 8.725225 3.693607 -0.276387
v 10.307599 2.888696 -0.624259
v 9.481820 2.691455 0.842728
v 10.284537 2.488897 0.237775
vt 0.032258 0.299280
vt 0.112903 0.327216
vt 0.096774 0.411025
vt 0.032258 0.411025
vt 0.000000 0.355153
vt 0.209677 0.327216
vt 0.308355 0.282569
vt 0.290323 0.411025
vt 0.210947 0.427821
vt 0.403226 0.327216
vt 0.483871 0.299280
vt 0.516129 0.355153
vt 0.483871 0.411025
vt 0.419355 0.411025
vt 0.653226 0.313248
vt 0.692279 0.427821
vt 0.612903 0.411025
vt 0.548387 0.466898
vt 0.790323 0.327216
vt 0.870968 0.299280
vt 0.903226 0.355153
vt 0.870968 0.411025
vt 0.806452 0.411025
vt 0.903226 0.466898
vt 0.838710 0.522771
vt 0.774194 0.466898
vt 0.677419 0.522771
vt 0.612903 0.522771
vt 0.580645 0.466898
vt 0.516129 0.466898
vt 0.435484 0.494834
vt 0.401957 0.561848
vt 0.322581 0.466898
vt 0.290323 0.522771
vt 0.225806 0.522771
vt 0.112903 0.494834
vt 0.016129 0.494834
vt 0.193548 0.578643
vt 0.129032 0.578643
vt 0.322581 0.578643
vt 0.596774 0.606579
vt 0.774194 0.578643
vt 0.709677 0.578643
vt 0.983871 0.494834
vt 0.967742 0.578643
vt 0.903226 0.578643
vt 1.000000 0.634516
vt 0.967742 0.690388
vt 0.887097 0.662452
vt 0.790323 0.662452
vt 0.709677 0.690388
vt 0.677419 0.634516
vt 0.580645 0.690388
vt 0.516129 0.690388
vt 0.483871 0.634516
vt 0.419355 0.634516
vt 0.387097 0.690388
vt 0.306452 0.662452
vt 0.209677 0.662452
vt 0.129032 0.690388
vt 0.096774 0.634516
vt 0.116711 0.584129
vt 0.064516 0.622051
vt 0.012321 0.584129
vt 0.310259 0.584129
vt 0.258065 0.622051
vt 0.205870 0.584129
vt 0.503808 0.584129
vt 0.451613 0.622051
vt 0.697356 0.584129
vt 0.619064 0.603090
vt 0.890904 0.584129
vt 0.838710 0.622051
vt 0.786515 0.584129
vt 0.213485 0.751747
vt 0.161290 0.789669
vt 0.109096 0.751747
vt 0.109096 0.405539
vt 0.161290 0.367618
vt 0.354839 0.405539
vt 0.496192 0.405539
vt 0.548387 0.367618
vt 0.600582 0.405539
vt 0.741935 0.367618
vt 0.794130 0.405539
vt 0.883289 0.405539
vt 0.935484 0.367618
vt 0.987679 0.405539
vt 0.205870 0.237922
vt 0.258065 0.200000
vn 0.484409 0.788623 0.378710
vn 0.484409 0.788623 0.378710
vn 0.484409 0.788623 0.378710
vn 0.484409 0.788623 0.378710
vn 0.484409 0.788623 0.378710
vn 0.139217 0.979831 -0.143350
vn 0.139217 0.979831 -0.143350
vn 0.139217 0.979831 -0.143350
vn 0.139217 0.979831 -0.143350
vn -0.045725 0.906701 0.419289
vn -0.045725 0.906701 0.419289
vn -0.045725 0.906701 0.419289
vn -0.063587 0.660358 0.748254
vn -0.063587 0.660358 0.748254
vn -0.063587 0.660358 0.748254
vn -0.063587 0.660358 0.748254
vn 0.640683 0.736170 -0.218129
vn 0.640683 0.736170 -0.218129
vn 0.640683 0.736170 -0.218129
vn 0.640683 0.736170 -0.218129
vn 0.640683 0.736170 -0.218129
vn -0.476398 0.879217 -0.004765
vn -0.476398 0.879217 -0.004765
vn -0.476398 0.879217 -0.004765
vn -0.476398 0.879217 -0.004765
vn -0.476398 0.879217 -0.004765
vn 0.514144 0.459665 0.724130
vn 0.514144 0.459665 0.724130
vn 0.514144 0.459665 0.724130
vn 0.514144 0.459665 0.724130
vn -0.267656 0.680198 0.682415
vn -0.267656 0.680198 0.682415
vn -0.267656 0.680198 0.682415
vn -0.267656 0.680198 0.682415
vn -0.267656 0.680198 0.682415
vn 0.289353 0.623939 -0.725930
vn 0.289353 0.623939 -0.725930
vn 0.289353 0.623939 -0.725930
vn 0.289353 0.623939 -0.725930
vn 0.937023 0.306609 0.167267
vn 0.937023 0.306609 0.167267
vn 0.937023 0.306609 0.167267
vn 0.937023 0.306609 0.167267
vn -0.058273 0.888432 -0.455294
vn -0.058273 0.888432 -0.455294
vn -0.058273 0.888432 -0.455294
vn -0.058273 0.888432 -0.455294
vn 0.237727 -0.205445 0.949357
vn 0.237727 -0.205445 0.949357
vn 0.237727 -0.205445 0.949357
vn 0.237727 -0.205445 0.949357
vn 0.237727 -0.205445 0.949357
vn -0.109403 0.081638 0.990639
vn -0.109403 0.081638 0.990639
vn -0.109403 0.081638 0.990639
vn -0.109403 0.081638 0.990639
vn 0.794754 0.176033 -0.580843
vn 0.794754 0.176033 -0.580843
vn 0.794754 0.176033 -0.580843
vn 0.794754 0.176033 -0.580843
vn 0.794754 0.176033 -0.580843
vn -0.961718 0.272878 -0.025234
vn -0.961718 0.272878 -0.025234
vn -0.961718 0.272878 -0.025234
vn -0.961718 0.272878 -0.025234
vn -0.961718 0.272878 -0.025234
vn -0.759284 0.376947 -0.530471
vn -0.759284 0.376947 -0.530471
vn -0.759284 0.376947 -0.530471
vn -0.759284 0.376947 -0.530471
vn -0.759284 0.376947 -0.530471
vn 0.868027 -0.194212 0.456958
vn 0.868027 -0.194212 0.456958
vn 0.868027 -0.194212 0.456958
vn 0.868027 -0.194212 0.456958
vn 0.868027 -0.194212 0.456958
vn -0.717960 -0.040000 0.694934
vn -0.717960 -0.040000 0.694934
vn -0.717960 -0.040000 0.694934
vn -0.717960 -0.040000 0.694934
vn -0.717960 -0.040000 0.694934
vn 0.299817 -0.019003 -0.953807
vn 0.299817 -0.019003 -0.953807
vn 0.299817 -0.019003 -0.953807
vn 0.299817 -0.019003 -0.953807
vn -0.118413 0.498130 -0.858979
vn -0.118413 0.498130 -0.858979
vn -0.118413 0.498130 -0.858979
vn -0.118413 0.498130 -0.858979
vn -0.118413 0.498130 -0.858979
vn 0.963575 -0.149335 0.221859
vn 0.963575 -0.149335 0.221859
vn 0.963575 -0.149335 0.221859
vn 0.963575 -0.149335 0.221859
vn 0.092619 -0.825398 0.556902
vn 0.092619 -0.825398 0.556902
vn 0.092619 -0.825398 0.556902
vn 0.092619 -0.825398 0.556902
vn 0.092619 -0.825398 0.556902
vn -0.289356 -0.623936 0.725931
vn -0.289356 -0.623936 0.725931
vn -0.289356 -0.623936 0.725931
vn -0.289356 -0.623936 0.725931
vn 0.627982 -0.477051 -0.614867
vn 0.627982 -0.477051 -0.614867
vn 0.627982 -0.477051 -0.614867
vn 0.627982 -0.477051 -0.614867
vn 0.627982 -0.477051 -0.614867
vn 0.627982 -0.477051 -0.614867
vn -0.937024 -0.306608 -0.167268
vn -0.937024 -0.306608 -0.167268
vn -0.937024 -0.306608 -0.167268
vn -0.937024 -0.306608 -0.167268
vn -0.937024 -0.306608 -0.167268
vn -0.536429 -0.426343 -0.728337
vn -0.536429 -0.426343 -0.728337
vn -0.536429 -0.426343 -0.728337
vn -0.536429 -0.426343 -0.728337
vn -0.536429 -0.426343 -0.728337
vn 0.476398 -0.879217 0.004765
vn 0.476398 -0.879217 0.004765
vn 0.476398 -0.879217 0.004765
vn 0.476398 -0.879217 0.004765
vn 0.476398 -0.879217 0.004765
vn -0.640573 -0.665941 0.382346
vn -0.640573 -0.665941 0.382346
vn -0.640573 -0.665941 0.382346
vn -0.640573 -0.665941 0.382346
vn -0.640573 -0.665941 0.382346
vn -0.069667 -0.354997 -0.932268
vn -0.069667 -0.354998 -0.932268
vn -0.069667 -0.354997 -0.932268
vn -0.069667 -0.354997 -0.932268
vn -0.069667 -0.354997 -0.932268
vn -0.030235 -0.998778 0.039085
vn -0.030235 -0.998778 0.039085
vn -0.030235 -0.998778 0.039085
vn -0.030235 -0.998778 0.039085
vn -0.030235 -0.998778 0.039085
vn 0.045725 -0.906700 -0.419290
vn 0.045725 -0.906700 -0.419290
vn 0.045725 -0.906700 -0.419290
vn 0.045725 -0.906700 -0.419290
vn -0.484409 -0.788623 -0.378710
vn -0.484409 -0.788623 -0.378710
vn -0.484409 -0.788623 -0.378710
vn -0.484409 -0.788623 -0.378710
vn -0.484409 -0.788623 -0.378710
s off
g pSolid3
usemtl initialShadingGroup
f 1/14/1 2/10/2 10/11/3 6/12/4 3/13/5
f 1/14/6 3/13/7 5/30/8 4/31/9
f 4/31/10 7/33/11 1/80/12
f 1/8/13 11/9/14 9/6/15 2/7/16
f 6/82/17 13/83/18 12/29/19 5/30/20 3/81/21
f 8/32/22 19/40/23 14/34/24 7/33/25 4/31/26
f 2/6/27 9/89/28 15/90/29 10/7/30
f 1/8/31 7/33/32 14/34/33 18/35/34 11/9/35
f 5/30/36 12/29/37 16/28/38 25/41/39
f 6/18/40 10/15/41 17/16/42 13/17/43
f 8/32/44 4/31/45 5/68/46 20/69/47
f 9/2/48 22/3/49 30/4/50 21/5/51 15/1/52
f 11/9/53 23/36/54 22/78/55 9/79/56
f 12/29/57 13/17/58 17/16/59 24/27/60 16/28/61
f 19/65/62 27/66/63 26/67/64 18/35/65 14/34/66
f 20/56/67 28/57/68 27/58/69 19/40/70 8/32/71
f 21/21/72 29/22/73 31/23/74 10/19/75 15/20/76
f 11/9/77 18/35/78 26/38/79 34/39/80 23/36/81
f 16/28/82 24/27/83 32/70/84 25/71/85
f 25/41/86 35/53/87 28/54/88 20/55/89 5/18/90
f 17/16/91 10/84/92 31/85/93 33/26/94
f 30/88/95 37/44/96 36/24/97 29/86/98 21/87/99
f 22/3/100 23/36/101 37/37/102 30/4/103
f 24/27/104 17/16/105 33/26/106 39/25/107 38/42/108 32/43/109
f 26/38/110 27/59/111 41/60/112 40/61/113 34/39/114
f 35/76/115 42/77/116 41/60/117 27/59/118 28/75/119
f 36/24/120 39/25/121 33/26/122 31/23/123 29/22/124
f 23/36/125 34/62/126 40/63/127 43/64/128 37/37/129
f 38/42/130 42/50/131 35/51/132 25/52/133 32/43/134
f 36/24/135 37/44/136 43/45/137 44/46/138 39/25/139
f 38/74/140 39/25/141 44/72/142 42/73/143
f 40/47/144 41/48/145 42/49/146 44/46/147 43/45/148
g default
v 10.921765 -0.058519 0.785020
v 10.884812 -0.058519 0.712496
v 10.827257 -0.058519 0.654940
v 10.754733 -0.058519 0.617988
v 10.674340 -0.058519 0.605255
v 10.593946 -0.058519 0.617988
v 10.521422 -0.058519 0.654941
v 10.463867 -0.058519 0.712496
v 10.426914 -0.058519 0.785020
v 10.414181 -0.058519 0.865413
v 10.426914 -0.058519 0.945807
v 10.463867 -0.058519 1.018330
v 10.521422 -0.058519 1.075886
v 10.593946 -0.058519 1.112838
v 10.674340 -0.058519 1.125572
v 10.754733 -0.058519 1.112838
v 10.827257 -0.058519 1.075886
v 10.884812 -0.058519 1.018330
v 10.921765 -0.058519 0.945807
v 10.934498 -0.058519 0.865413
v 10.763517 4.398975 0.836438
v 10.750199 4.398975 0.810298
v 10.729454 4.398975 0.789554
v 10.703315 4.398975 0.776235
v 10.674340 4.398975 0.771646
v 10.645364 4.398975 0.776235
v 10.619225 4.398975 0.789554
v 10.598481 4.398975 0.810298
v 10.585162 4.398975 0.836438
v 10.580573 4.398975 0.865413
v 10.585162 4.398975 0.894389
v 10.598481 4.398975 0.920528
v 10.619225 4.398975 0.941272
v 10.645364 4.398975 0.954591
v 10.674340 4.398975 0.959180
v 10.703315 4.398975 0.954591
v 10.729454 4.398975 0.941272
v 10.750199 4.398975 0.920528
v 10.763517 4.398975 0.894389
v 10.768107 4.398975 0.865413
v 10.674340 -0.058519 0.865413
v 10.674340 4.398975 0.865413
vt 0.648603 0.107966
vt 0.626409 0.064408
vt 0.591842 0.029841
vt 0.548284 0.007647
vt 0.500000 -0.000000
vt 0.451716 0.007647
vt 0.408159 0.029841
vt 0.373591 0.064409
vt 0.351397 0.107966
vt 0.343750 0.156250
vt 0.351397 0.204534
vt 0.373591 0.248091
vt 0.408159 0.282659
vt 0.451716 0.304853
vt 0.500000 0.312500
vt 0.548284 0.304853
vt 0.591841 0.282659
vt 0.626409 0.248091
vt 0.648603 0.204534
vt 0.656250 0.156250
vt 0.375000 0.312500
vt 0.387500 0.312500
vt 0.400000 0.312500
vt 0.412500 0.312500
vt 0.425000 0.312500
vt 0.437500 0.312500
vt 0.450000 0.312500
vt 0.462500 0.312500
vt 0.475000 0.312500
vt 0.487500 0.312500
vt 0.500000 0.312500
vt 0.512500 0.312500
vt 0.525000 0.312500
vt 0.537500 0.312500
vt 0.550000 0.312500
vt 0.562500 0.312500
vt 0.575000 0.312500
vt 0.587500 0.312500
vt 0.600000 0.312500
vt 0.612500 0.312500
vt 0.625000 0.312500
vt 0.375000 0.688440
vt 0.387500 0.688440
vt 0.400000 0.688440
vt 0.412500 0.688440
vt 0.425000 0.688440
vt 0.437500 0.688440
vt 0.450000 0.688440
vt 0.462500 0.688440
vt 0.475000 0.688440
vt 0.487500 0.688440
vt 0.500000 0.688440
vt 0.512500 0.688440
vt 0.525000 0.688440
vt 0.537500 0.688440
vt 0.550000 0.688440
vt 0.562500 0.688440
vt 0.575000 0.688440
vt 0.587500 0.688440
vt 0.600000 0.688440
vt 0.612500 0.688440
vt 0.625000 0.688440
vt 0.648603 0.795466
vt 0.626409 0.751908
vt 0.591842 0.717341
vt 0.548284 0.695147
vt 0.500000 0.687500
vt 0.451716 0.695147
vt 0.408159 0.717341
vt 0.373591 0.751909
vt 0.351397 0.795466
vt 0.343750 0.843750
vt 0.351397 0.892034
vt 0.373591 0.935591
vt 0.408159 0.970159
vt 0.451716 0.992353
vt 0.500000 1.000000
vt 0.548284 0.992353
vt 0.591841 0.970159
vt 0.626409 0.935591
vt 0.648603 0.892034
vt 0.656250 0.843750
vt 0.500000 0.150000
vt 0.500000 0.837500
vn 0.950395 0.037303 -0.308801
vn 0.808454 0.037303 -0.587376
vn 0.808454 0.037303 -0.587376
vn 0.950395 0.037303 -0.308801
vn 0.587376 0.037303 -0.808454
vn 0.587376 0.037303 -0.808454
vn 0.308802 0.037303 -0.950395
vn 0.308802 0.037303 -0.950395
vn -0.000000 0.037303 -0.999304
vn -0.000000 0.037302 -0.999304
vn -0.308802 0.037302 -0.950394
vn -0.308802 0.037302 -0.950394
vn -0.587376 0.037303 -0.808454
vn -0.587376 0.037303 -0.808454
vn -0.808454 0.037303 -0.587376
vn -0.808454 0.037303 -0.587376
vn -0.950395 0.037302 -0.308802
vn -0.950395 0.037302 -0.308802
vn -0.999304 0.037302 0.000000
vn -0.999304 0.037302 0.000000
vn -0.950394 0.037302 0.308802
vn -0.950394 0.037302 0.308802
vn -0.808454 0.037303 0.587376
vn -0.808454 0.037303 0.587376
vn -0.587376 0.037303 0.808454
vn -0.587376 0.037303 0.808454
vn -0.308802 0.037302 0.950395
vn -0.308802 0.037302 0.950395
vn 0.000000 0.037302 0.999304
vn 0.000000 0.037302 0.999304
vn 0.308801 0.037302 0.950395
vn 0.308801 0.037302 0.950395
vn 0.587376 0.037303 0.808454
vn 0.587376 0.037303 0.808454
vn 0.808454 0.037303 0.587376
vn 0.808454 0.037303 0.587376
vn 0.950395 0.037302 0.308802
vn 0.950394 0.037302 0.308802
vn 0.999304 0.037303 0.000001
vn 0.999304 0.037302 0.000002
vn 0.000000 -1.000000 0.000000
vn 0.000000 -1.000000 0.000000
vn 0.000000 -1.000000 -0.000000
vn 0.000000 -1.000000 0.000000
vn 0.000000 -1.000000 0.000000
vn 0.000000 -1.000000 0.000000
vn 0.000000 -1.000000 0.000000
vn 0.000000 -1.000000 0.000000
vn 0.000000 -1.000000 0.000000
vn 0.000000 -1.000000 0.000000
vn 0.000000 -1.000000 0.000000
vn 0.000000 -1.000000 0.000000
vn 0.000000 -1.000000 0.000000
vn 0.000000 -1.000000 0.000000
vn 0.000000 -1.000000 -0.000000
vn 0.000000 -1.000000 -0.000000
vn 0.000000 -1.000000 0.000000
vn 0.000000 -1.000000 0.000000
vn 0.000000 -1.000000 0.000000
vn 0.000000 -1.000000 0.000000
vn 0.000000 -1.000000 0.000000
vn 0.000000 1.000000 0.000000
vn 0.000000 1.000000 -0.000006
vn 0.000000 1.000000 -0.000001
vn 0.000000 1.000000 -0.000006
vn 0.000000 1.000000 0.000000
vn 0.000000 1.000000 0.000000
vn 0.000000 1.000000 0.000000
vn 0.000000 1.000000 0.000003
vn 0.000000 1.000000 0.000003
vn 0.000000 1.000000 0.000000
vn 0.000000 1.000000 0.000000
vn 0.000000 1.000000 0.000000
vn 0.000000 1.000000 -0.000006
vn 0.000000 1.000000 -0.000006
vn 0.000000 1.000000 0.000002
vn 0.000000 1.000000 0.000001
vn 0.000000 1.000000 -0.000001
vn 0.000000 1.000000 0.000003
vn 0.000000 1.000000 0.000003
vn 0.000000 1.000000 0.000000
vn 0.000000 1.000000 0.000000
s 1
g pCylinder771
usemtl initialShadingGroup
f 45/111/149 46/112/150 66/133/151 65/132/152
f 46/112/150 47/113/153 67/134/154 66/133/151
f 47/113/153 48/114/155 68/135/156 67/134/154
f 48/114/155 49/115/157 69/136/158 68/135/156
f 49/115/157 50/116/159 70/137/160 69/136/158
f 50/116/159 51/117/161 71/138/162 70/137/160
f 51/117/161 52/118/163 72/139/164 71/138/162
f 52/118/163 53/119/165 73/140/166 72/139/164
f 53/119/165 54/120/167 74/141/168 73/140/166
f 54/120/167 55/121/169 75/142/170 74/141/168
f 55/121/169 56/122/171 76/143/172 75/142/170
f 56/122/171 57/123/173 77/144/174 76/143/172
f 57/123/173 58/124/175 78/145/176 77/144/174
f 58/124/175 59/125/177 79/146/178 78/145/176
f 59/125/177 60/126/179 80/147/180 79/146/178
f 60/126/179 61/127/181 81/148/182 80/147/180
f 61/127/181 62/128/183 82/149/184 81/148/182
f 62/128/183 63/129/185 83/150/186 82/149/184
f 63/129/185 64/130/187 84/151/188 83/150/186
f 64/130/187 45/131/149 65/152/152 84/151/188
s 2
f 46/92/189 45/91/190 85/173/191
f 47/93/192 46/92/189 85/173/191
f 48/94/193 47/93/192 85/173/191
f 49/95/194 48/94/193 85/173/191
f 50/96/195 49/95/194 85/173/191
f 51/97/196 50/96/195 85/173/191
f 52/98/197 51/97/196 85/173/191
f 53/99/198 52/98/197 85/173/191
f 54/100/199 53/99/198 85/173/191
f 55/101/200 54/100/199 85/173/191
f 56/102/201 55/101/200 85/173/191
f 57/103/202 56/102/201 85/173/191
f 58/104/203 57/103/202 85/173/191
f 59/105/204 58/104/203 85/173/191
f 60/106/205 59/105/204 85/173/191
f 61/107/206 60/106/205 85/173/191
f 62/108/207 61/107/206 85/173/191
f 63/109/208 62/108/207 85/173/191
f 64/110/209 63/109/208 85/173/191
f 45/91/190 64/110/209 85/173/191
s 3
f 65/171/210 66/170/211 86/174/212
f 66/170/211 67/169/213 86/174/212
f 67/169/213 68/168/214 86/174/212
f 68/168/214 69/167/215 86/174/212
f 69/167/215 70/166/216 86/174/212
f 70/166/216 71/165/217 86/174/212
f 71/165/217 72/164/218 86/174/212
f 72/164/218 73/163/219 86/174/212
f 73/163/219 74/162/220 86/174/212
f 74/162/220 75/161/221 86/174/212
f 75/161/221 76/160/222 86/174/212
f 76/160/222 77/159/223 86/174/212
f 77/159/223 78/158/224 86/174/212
f 78/158/224 79/157/225 86/174/212
f 79/157/225 80/156/226 86/174/212
f 80/156/226 81/155/227 86/174/212
f 81/155/227 82/154/228 86/174/212
f 82/154/228 83/153/229 86/174/212
f 83/153/229 84/172/230 86/174/212
f 84/172/230 65/171/210 86/174/212
